<svg xmlns="http://www.w3.org/2000/svg" viewBox="0 0 344.33 347.87"><defs><style>.cls-1{fill:#fefefe;}</style></defs><g id="Layer_2" data-name="Layer 2"><g id="Layer_1-2" data-name="Layer 1"><path d="M186.7,251.92q-45.81,0-91.63,0c-21,0-35.41-13.32-37.59-34.25Q51.35,158.82,45,100q-3.87-36.68-7.58-73.37c-.21-2.11-.85-2.69-2.91-2.66-7.23.12-14.46.08-21.69,0C5.33,24-.07,18.84,0,11.89S5.37.07,12.72,0Q29.93,0,47.13,0c7.39,0,12,4.46,12.76,11.89C61.41,26.7,63,41.47,64.45,56.25c.28,2.86,1.08,3.84,4.2,3.84q125.11-.17,250.21-.08c13,0,22.82,7.64,25.1,19.6,1.18,6.21-.74,12.13-2,18.08q-13.41,62.7-26.89,125.38c-3.81,17.55-18,28.81-36,28.84Q232.9,252,186.7,251.92Z"/><path d="M143.64,311.78a35.91,35.91,0,1,1-36-35.86A36,36,0,0,1,143.64,311.78Z"/><path d="M287.3,311.78a35.91,35.91,0,1,1-36-35.86A36,36,0,0,1,287.3,311.78Z"/><path class="cls-1" d="M320.41,84c-3.82,17.78-7.58,35.2-11.31,52.62q-8.61,40.23-17.21,80.45c-1.6,7.45-5.82,10.86-13.37,10.87H94.83c-8.1,0-12.55-3.92-13.41-12q-4.9-46-9.69-92c-1.31-12.42-2.51-24.85-4-37.24-.33-2.66.52-2.82,2.62-2.77,5.11.1,10.22,0,15.33,0H320.41Z"/><path class="cls-1" d="M119.7,311.75a12,12,0,1,1-12-11.84A12.07,12.07,0,0,1,119.7,311.75Z"/><path class="cls-1" d="M263.36,312.06a12,12,0,1,1-11.7-12.15A12.07,12.07,0,0,1,263.36,312.06Z"/><rect x="230.19" y="299.91" width="43" height="23.98"/><rect x="91.19" y="294.95" width="35" height="28.94"/></g></g></svg>